<svg width="33" height="32" viewBox="0 0 33 32" fill="none" xmlns="http://www.w3.org/2000/svg">
<g clip-path="url(#clip0_130_3063)">
<path d="M28.5 16C28.5 9.37262 23.1274 4 16.5 4C9.87262 4 4.5 9.37253 4.5 16C4.5 21.9895 8.88825 26.954 14.625 27.8542V19.4688H11.5781V16H14.625V13.3563C14.625 10.3488 16.4166 8.6875 19.1575 8.6875C20.4705 8.6875 21.8438 8.92188 21.8438 8.92188V11.875H20.3306C18.8398 11.875 18.375 12.8 18.375 13.7491V16H21.7031L21.1711 19.4688H18.375V27.8542C24.1117 26.954 28.5 21.9896 28.5 16Z" fill="#1877F2"/>
<path d="M21.1711 19.4688L21.7031 16H18.375V13.7491C18.375 12.7999 18.8399 11.875 20.3306 11.875H21.8438V8.92188C21.8438 8.92188 20.4705 8.6875 19.1575 8.6875C16.4166 8.6875 14.625 10.3488 14.625 13.3563V16H11.5781V19.4688H14.625V27.8542C15.2453 27.9514 15.8722 28.0002 16.5 28C17.1278 28.0002 17.7547 27.9514 18.375 27.8542V19.4688H21.1711Z" fill="white"/>
</g>
<defs>
<clipPath id="clip0_130_3063">
<rect width="24" height="24" fill="white" transform="translate(4.5 4)"/>
</clipPath>
</defs>
</svg>
