<svg width="33" height="32" viewBox="0 0 33 32" fill="none" xmlns="http://www.w3.org/2000/svg">
<g clip-path="url(#clip0_130_3046)">
<path d="M22.875 4H10.125C7.0184 4 4.5 6.5184 4.5 9.625V22.375C4.5 25.4816 7.0184 28 10.125 28H22.875C25.9816 28 28.5 25.4816 28.5 22.375V9.625C28.5 6.5184 25.9816 4 22.875 4Z" fill="url(#paint0_radial_130_3046)"/>
<path d="M22.875 4H10.125C7.0184 4 4.5 6.5184 4.5 9.625V22.375C4.5 25.4816 7.0184 28 10.125 28H22.875C25.9816 28 28.5 25.4816 28.5 22.375V9.625C28.5 6.5184 25.9816 4 22.875 4Z" fill="url(#paint1_radial_130_3046)"/>
<path d="M16.5008 6.625C13.9548 6.625 13.6352 6.63616 12.6353 6.68163C11.6372 6.72738 10.9559 6.88534 10.3598 7.11719C9.74316 7.35662 9.22013 7.67697 8.69906 8.19822C8.17753 8.71937 7.85719 9.24241 7.617 9.85881C7.3845 10.4551 7.22634 11.1366 7.18144 12.1342C7.13672 13.1342 7.125 13.4539 7.125 16.0001C7.125 18.5463 7.13625 18.8648 7.18163 19.8647C7.22756 20.8628 7.38553 21.5441 7.61719 22.1402C7.85681 22.7568 8.17716 23.2799 8.69841 23.8009C9.21938 24.3225 9.74241 24.6436 10.3586 24.883C10.9552 25.1148 11.6365 25.2728 12.6344 25.3186C13.6344 25.364 13.9538 25.3752 16.4997 25.3752C19.0461 25.3752 19.3646 25.364 20.3646 25.3186C21.3626 25.2728 22.0447 25.1148 22.6412 24.883C23.2576 24.6436 23.7799 24.3225 24.3007 23.8009C24.8223 23.2799 25.1425 22.7568 25.3828 22.1404C25.6133 21.5441 25.7715 20.8626 25.8184 19.8649C25.8633 18.865 25.875 18.5463 25.875 16.0001C25.875 13.4539 25.8633 13.1344 25.8184 12.1344C25.7715 11.1363 25.6133 10.4552 25.3828 9.85909C25.1425 9.24241 24.8223 8.71937 24.3007 8.19822C23.7793 7.67678 23.2578 7.35644 22.6406 7.11728C22.043 6.88534 21.3613 6.72728 20.3632 6.68163C19.3632 6.63616 19.0448 6.625 16.4979 6.625H16.5008ZM15.6598 8.31447C15.9095 8.31409 16.188 8.31447 16.5008 8.31447C19.0041 8.31447 19.3007 8.32347 20.2892 8.36838C21.2032 8.41019 21.6994 8.56291 22.0298 8.69125C22.4674 8.86112 22.7793 9.06428 23.1072 9.3925C23.4353 9.72062 23.6384 10.0331 23.8088 10.4706C23.9371 10.8006 24.09 11.2968 24.1316 12.2108C24.1765 13.1991 24.1863 13.4959 24.1863 15.9979C24.1863 18.4999 24.1765 18.7968 24.1316 19.7851C24.0898 20.6991 23.9371 21.1952 23.8088 21.5253C23.6389 21.9629 23.4353 22.2744 23.1072 22.6023C22.7791 22.9305 22.4676 23.1335 22.0298 23.3035C21.6997 23.4324 21.2032 23.5848 20.2892 23.6266C19.3009 23.6715 19.0041 23.6812 16.5008 23.6812C13.9975 23.6812 13.7008 23.6715 12.7126 23.6266C11.7985 23.5844 11.3024 23.4317 10.9717 23.3033C10.5342 23.1333 10.2217 22.9303 9.89353 22.6022C9.56541 22.274 9.36234 21.9623 9.192 21.5246C9.06366 21.1945 8.91075 20.6984 8.86913 19.7843C8.82422 18.796 8.81522 18.4992 8.81522 15.9956C8.81522 13.4921 8.82422 13.1968 8.86913 12.2085C8.91094 11.2944 9.06366 10.7983 9.192 10.4678C9.36197 10.0303 9.56541 9.71781 9.89363 9.38969C10.2218 9.06156 10.5342 8.85841 10.9717 8.68816C11.3022 8.55925 11.7985 8.40691 12.7126 8.36491C13.5774 8.32581 13.9126 8.31409 15.6598 8.31212V8.31447ZM21.5052 9.87109C20.8841 9.87109 20.3802 10.3745 20.3802 10.9957C20.3802 11.6168 20.8841 12.1207 21.5052 12.1207C22.1263 12.1207 22.6302 11.6168 22.6302 10.9957C22.6302 10.3746 22.1263 9.87072 21.5052 9.87072V9.87109ZM16.5008 11.1856C13.8421 11.1856 11.6864 13.3413 11.6864 16.0001C11.6864 18.6589 13.8421 20.8136 16.5008 20.8136C19.1597 20.8136 21.3146 18.6589 21.3146 16.0001C21.3146 13.3413 19.1595 11.1856 16.5007 11.1856H16.5008ZM16.5008 12.875C18.2267 12.875 19.6259 14.2741 19.6259 16.0001C19.6259 17.7259 18.2267 19.1252 16.5008 19.1252C14.7749 19.1252 13.3759 17.7259 13.3759 16.0001C13.3759 14.2741 14.7749 12.875 16.5008 12.875Z" fill="white"/>
</g>
<defs>
<radialGradient id="paint0_radial_130_3046" cx="0" cy="0" r="1" gradientUnits="userSpaceOnUse" gradientTransform="translate(10.875 29.8485) rotate(-90) scale(23.7858 22.1227)">
<stop stop-color="#FFDD55"/>
<stop offset="0.1" stop-color="#FFDD55"/>
<stop offset="0.5" stop-color="#FF543E"/>
<stop offset="1" stop-color="#C837AB"/>
</radialGradient>
<radialGradient id="paint1_radial_130_3046" cx="0" cy="0" r="1" gradientUnits="userSpaceOnUse" gradientTransform="translate(0.479906 5.72884) rotate(78.681) scale(10.6324 43.827)">
<stop stop-color="#3771C8"/>
<stop offset="0.128" stop-color="#3771C8"/>
<stop offset="1" stop-color="#6600FF" stop-opacity="0"/>
</radialGradient>
<clipPath id="clip0_130_3046">
<rect width="24" height="24" fill="white" transform="translate(4.5 4)"/>
</clipPath>
</defs>
</svg>
