<svg width="33" height="32" viewBox="0 0 33 32" fill="none" xmlns="http://www.w3.org/2000/svg">
<g clip-path="url(#clip0_130_3055)">
<path d="M22.2862 12.6417C24.0373 13.7462 26.1825 14.396 28.4993 14.396V10.4625C28.0608 10.4625 27.6235 10.4222 27.1945 10.342V13.4382C24.8778 13.4382 22.7329 12.7885 20.9815 11.6841V19.7114C20.9815 23.7271 17.2919 26.9821 12.7409 26.9821C11.0428 26.9821 9.46441 26.5292 8.15332 25.7524C9.64976 27.1024 11.7366 27.9398 14.0453 27.9398C18.5967 27.9398 22.2864 24.6848 22.2864 20.6689V12.6417H22.2862ZM23.8959 8.6733C23.001 7.8107 22.4134 6.69594 22.2862 5.4635V4.9576H21.0498C21.361 6.52397 22.4227 7.86218 23.8959 8.6733ZM11.0318 22.6709C10.5318 22.0926 10.2616 21.3849 10.2628 20.6574C10.2628 18.8208 11.9504 17.3317 14.0325 17.3317C14.4204 17.3315 14.8061 17.3841 15.1759 17.4875V13.466C14.7438 13.4138 14.3076 13.3915 13.8717 13.3997V16.5298C13.5017 16.4263 13.1158 16.3738 12.7277 16.3741C10.6457 16.3741 8.95816 17.8631 8.95816 19.6999C8.95816 20.9987 9.80163 22.1231 11.0318 22.6709Z" fill="#FF004F"/>
<path d="M20.9815 11.6841C22.733 12.7884 24.8778 13.4381 27.1945 13.4381V10.3419C25.9013 10.0988 24.7565 9.50262 23.8958 8.6733C22.4225 7.8621 21.361 6.52389 21.0498 4.9576H17.802V20.6687C17.7946 22.5004 16.1099 23.9834 14.0323 23.9834C12.8081 23.9834 11.7204 23.4686 11.0316 22.6708C9.80163 22.1231 8.95806 20.9986 8.95806 19.7C8.95806 17.8633 10.6456 16.3742 12.7276 16.3742C13.1265 16.3742 13.5109 16.4289 13.8716 16.5299V13.3998C9.40047 13.4813 5.80469 16.7046 5.80469 20.6688C5.80469 22.6478 6.70009 24.4417 8.15341 25.7525C9.4645 26.5292 11.0428 26.9823 12.741 26.9823C17.2921 26.9823 20.9816 23.727 20.9816 19.7114V11.6841L20.9815 11.6841Z" fill="black"/>
<path d="M27.1945 10.3418V9.50477C26.0284 9.50633 24.8852 9.21819 23.8958 8.6733C24.7717 9.51927 25.9249 10.1026 27.1945 10.342V10.3418ZM21.0497 4.95752C21.02 4.80786 20.9973 4.6572 20.9814 4.5059V4H16.497V19.7113C16.4899 21.5428 14.8052 23.0258 12.7275 23.0258C12.1385 23.0266 11.5575 22.905 11.0316 22.671C11.7203 23.4686 12.808 23.9833 14.0322 23.9833C16.1097 23.9833 17.7946 22.5004 17.8019 20.6688V4.9576H21.0497V4.95752ZM13.8718 13.3997V12.5085C13.4971 12.4633 13.1193 12.4407 12.7411 12.4408C8.18953 12.4408 4.5 15.696 4.5 19.7113C4.5 22.2287 5.95003 24.4473 8.15353 25.7524C6.70022 24.4416 5.80481 22.6476 5.80481 20.6687C5.80481 16.7046 9.4005 13.4812 13.8718 13.3997Z" fill="#00F2EA"/>
</g>
<defs>
<clipPath id="clip0_130_3055">
<rect width="24" height="24" fill="white" transform="translate(4.5 4)"/>
</clipPath>
</defs>
</svg>
