<svg width="64" height="64" viewBox="0 0 64 64" fill="none" xmlns="http://www.w3.org/2000/svg">
<g clip-path="url(#clip0_122_913)">
<path d="M1.36565 31.617C1.36415 36.9942 2.78015 42.2447 5.47265 46.8726L1.10815 62.6845L17.4162 58.4417C21.9267 60.8782 26.9805 62.1548 32.1162 62.1552H32.1297C49.0834 62.1552 62.8842 48.4664 62.8914 31.6411C62.8947 23.488 59.6977 15.8214 53.8892 10.0535C48.0817 4.28601 40.3579 1.10809 32.1284 1.10437C15.1727 1.10437 1.3729 14.7924 1.3659 31.617" fill="url(#paint0_linear_122_913)"/>
<path d="M0.2675 31.6071C0.26575 37.1778 1.7325 42.6161 4.521 47.4096L0 63.7884L16.8927 59.3935C21.5472 61.9116 26.7878 63.2392 32.1203 63.2412H32.134C49.696 63.2412 63.9925 49.06 64 31.6324C64.003 23.1864 60.691 15.2442 54.675 9.26958C48.6582 3.29575 40.6582 0.00347287 32.134 0C14.569 0 0.2745 14.1792 0.2675 31.6071ZM10.3275 46.5841L9.69675 45.5906C7.04525 41.4073 5.64575 36.573 5.64775 31.6091C5.6535 17.1235 17.5345 5.33829 32.144 5.33829C39.219 5.34127 45.868 8.07789 50.869 13.0431C55.8698 18.0088 58.6215 24.6097 58.6198 31.6304C58.6133 46.116 46.732 57.9026 32.134 57.9026H32.1235C27.3703 57.9002 22.7085 56.6335 18.643 54.24L17.6755 53.6707L7.651 56.2786L10.3275 46.5838V46.5841Z" fill="url(#paint1_linear_122_913)"/>
<path d="M24.1694 18.3933C23.5729 17.0778 22.9451 17.0513 22.3779 17.0282C21.9134 17.0084 21.3824 17.0099 20.8519 17.0099C20.3209 17.0099 19.4581 17.2081 18.7289 17.9981C17.9989 18.789 15.9419 20.7 15.9419 24.5869C15.9419 28.474 18.7951 32.2304 19.1929 32.7581C19.5911 33.2847 24.7011 41.5164 32.7941 44.6832C39.5201 47.3148 40.8889 46.7914 42.3486 46.6595C43.8086 46.528 47.0596 44.7489 47.7229 42.9041C48.3866 41.0595 48.3866 39.4783 48.1876 39.1479C47.9886 38.8187 47.4576 38.621 46.6614 38.2261C45.8649 37.8309 41.9504 35.9196 41.2206 35.6559C40.4906 35.3925 39.9599 35.261 39.4289 36.0521C38.8979 36.8419 37.3731 38.621 36.9084 39.1479C36.4441 39.676 35.9794 39.7418 35.1834 39.3466C34.3866 38.9502 31.8224 38.117 28.7801 35.4257C26.4131 33.3316 24.8151 30.7455 24.3506 29.9545C23.8861 29.1646 24.3009 28.7365 24.7001 28.3428C25.0579 27.9888 25.4966 27.4203 25.8951 26.9591C26.2921 26.4977 26.4246 26.1686 26.6901 25.6417C26.9559 25.1143 26.8229 24.6529 26.6241 24.2577C26.4246 23.8626 24.8774 19.9553 24.1694 18.3933Z" fill="white"/>
</g>
<defs>
<linearGradient id="paint0_linear_122_913" x1="3090.27" y1="6159.12" x2="3090.27" y2="1.10437" gradientUnits="userSpaceOnUse">
<stop stop-color="#1FAF38"/>
<stop offset="1" stop-color="#60D669"/>
</linearGradient>
<linearGradient id="paint1_linear_122_913" x1="3200" y1="6378.84" x2="3200" y2="0" gradientUnits="userSpaceOnUse">
<stop stop-color="#F9F9F9"/>
<stop offset="1" stop-color="white"/>
</linearGradient>
<clipPath id="clip0_122_913">
<rect width="64" height="64" fill="white"/>
</clipPath>
</defs>
</svg>
